<?xml version="1.0"?>
<svg xmlns="http://www.w3.org/2000/svg" xmlns:xlink="http://www.w3.org/1999/xlink" xmlns:svgjs="http://svgjs.com/svgjs" version="1.1" width="512" height="512" x="0" y="0" viewBox="0 0 64 64" style="enable-background:new 0 0 512 512" xml:space="preserve" class=""><g><g xmlns="http://www.w3.org/2000/svg" id="Outline"><path d="M36,55H34V50H28V47h4V31H17V24h2v5H45V2H19V22H15V33H30V45H28V35H2V62H28V52h4v5h4v5H62V35H36ZM21,4H43V7H21ZM43,9V27H21V9ZM4,37H26v3H4ZM26,60H4V42H26Zm34,0H38V42H60ZM38,37H60v3H38Z" fill="#2c878d" data-original="#000000" style="" class=""/><rect x="24" y="22" width="16" height="2" fill="#2c878d" data-original="#000000" style="" class=""/><rect x="41" y="55" width="16" height="2" fill="#2c878d" data-original="#000000" style="" class=""/><rect x="41" y="50" width="16" height="2" fill="#2c878d" data-original="#000000" style="" class=""/><rect x="41" y="45" width="16" height="2" fill="#2c878d" data-original="#000000" style="" class=""/><rect x="24" y="17" width="16" height="2" fill="#2c878d" data-original="#000000" style="" class=""/><rect x="24" y="12" width="16" height="2" fill="#2c878d" data-original="#000000" style="" class=""/><rect x="7" y="55" width="16" height="2" fill="#2c878d" data-original="#000000" style="" class=""/><rect x="7" y="50" width="16" height="2" fill="#2c878d" data-original="#000000" style="" class=""/><rect x="7" y="45" width="16" height="2" fill="#2c878d" data-original="#000000" style="" class=""/></g></g></svg>
